<svg fill="#fff" id="Calque_1" data-name="Calque 1" xmlns="http://www.w3.org/2000/svg" viewBox="0 0 500 500"><title>cartes</title><path d="M96.12.37V499.63H403.88V.37Zm56.6,460.22a7.49,7.49,0,0,1-1.47,1.47l-12.5,12.38-12.56-12.2a7.66,7.66,0,0,1-1.47-1.47,7.84,7.84,0,1,1,14-4.78,7.84,7.84,0,0,1,15.62,0,7.66,7.66,0,0,1-1.59,4.6Zm0-422.49a7.43,7.43,0,0,1-1.47,1.47L138.75,52,126.19,39.58a7.61,7.61,0,0,1-1.47-1.47,7.84,7.84,0,1,1,14-4.78,7.84,7.84,0,0,1,15.62,0,7.66,7.66,0,0,1-1.59,4.78Zm147,209.59h0a28.06,28.06,0,0,1-5.31,5.25L250,297.17l-44.51-44.22a28,28,0,0,1-5.31-5.25h0A27.77,27.77,0,1,1,250,230.78a27.77,27.77,0,1,1,49.76,17ZM375.23,460.6a7.31,7.31,0,0,1-1.41,1.65l-12.5,12.38-12.62-12.38a7.49,7.49,0,0,1-1.47-1.47,7.84,7.84,0,1,1,14-4.78,7.84,7.84,0,0,1,15.62,0A7.72,7.72,0,0,1,375.23,460.6Zm0-422.49a7.31,7.31,0,0,1-1.47,1.47L361.25,52l-12.5-12.38a7.43,7.43,0,0,1-1.47-1.47,7.84,7.84,0,1,1,14-4.78,7.84,7.84,0,0,1,15.62,0A7.72,7.72,0,0,1,375.23,38.11Z"/></svg>
